<?xml version="1.0" encoding="UTF-8" standalone="no"?>
<!DOCTYPE svg PUBLIC "-//W3C//DTD SVG 20010904//EN"
              "http://www.w3.org/TR/2001/REC-SVG-20010904/DTD/svg10.dtd">

<svg xmlns="http://www.w3.org/2000/svg"
     width="20.3444in" height="4.04444in"
     viewBox="0 0 1831 364">
  <path id="Imported Path"
        fill="#ca5b32" stroke="black" stroke-width="1"
        d="M 1792.50,174.21
           C 1795.69,168.07 1799.49,163.25 1803.89,159.75
             1808.30,156.25 1813.50,154.50 1819.50,154.50
             1824.23,154.50 1828.03,155.54 1830.89,157.60
             1830.89,157.60 1829.29,176.10 1829.29,176.10
             1828.96,177.30 1828.47,178.15 1827.83,178.65
             1827.21,179.15 1826.36,179.40 1825.29,179.40
             1824.29,179.40 1822.80,179.23 1820.83,178.90
             1818.87,178.56 1816.96,178.40 1815.10,178.40
             1812.36,178.40 1809.93,178.80 1807.79,179.60
             1805.67,180.40 1803.75,181.54 1802.04,183.04
             1800.34,184.54 1798.84,186.36 1797.54,188.50
             1796.25,190.64 1795.03,193.07 1793.89,195.79
             1793.89,195.79 1793.89,259.00 1793.89,259.00
             1793.89,259.00 1769.21,259.00 1769.21,259.00
             1769.21,259.00 1769.21,156.40 1769.21,156.40
             1769.21,156.40 1783.71,156.40 1783.71,156.40
             1786.23,156.40 1788.00,156.85 1789.00,157.75
             1790.00,158.66 1790.67,160.27 1791.00,162.60
             1791.00,162.60 1792.50,174.21 1792.50,174.21 Z
           M 1792.50,174.21M 1728.49,195.90
           C 1728.49,192.70 1728.04,189.69 1727.14,186.85
             1726.25,184.02 1724.90,181.54 1723.09,179.42
             1721.30,177.28 1719.02,175.59 1716.24,174.35
             1713.47,173.12 1710.26,172.50 1706.59,172.50
             1699.47,172.50 1693.85,174.54 1689.74,178.60
             1685.64,182.68 1683.03,188.44 1681.91,195.90
             1681.91,195.90 1728.49,195.90 1728.49,195.90 Z
           M 1681.41,210.79
           C 1681.79,216.07 1682.72,220.63 1684.20,224.46
             1685.67,228.29 1687.60,231.46 1689.99,233.96
             1692.39,236.46 1695.24,238.33 1698.53,239.56
             1701.83,240.79 1705.49,241.40 1709.49,241.40
             1713.49,241.40 1716.94,240.93 1719.84,240.00
             1722.75,239.07 1725.28,238.04 1727.45,236.92
             1729.62,235.78 1731.51,234.74 1733.14,233.81
             1734.77,232.87 1736.37,232.40 1737.91,232.40
             1739.96,232.40 1741.49,233.17 1742.49,234.71
             1742.49,234.71 1749.59,243.71 1749.59,243.71
             1746.86,246.91 1743.79,249.58 1740.39,251.75
             1737.00,253.92 1733.45,255.66 1729.74,256.96
             1726.04,258.25 1722.28,259.16 1718.45,259.69
             1714.62,260.23 1710.90,260.50 1707.30,260.50
             1700.16,260.50 1693.52,259.32 1687.39,256.96
             1681.26,254.58 1675.93,251.08 1671.39,246.46
             1666.86,241.82 1663.29,236.08 1660.70,229.25
             1658.10,222.42 1656.80,214.50 1656.80,205.50
             1656.80,198.50 1657.93,191.92 1660.20,185.75
             1662.46,179.58 1665.71,174.22 1669.95,169.65
             1674.18,165.08 1679.35,161.46 1685.45,158.79
             1691.54,156.13 1698.43,154.79 1706.09,154.79
             1712.56,154.79 1718.53,155.83 1723.99,157.90
             1729.46,159.97 1734.16,162.99 1738.09,166.96
             1742.02,170.92 1745.11,175.79 1747.34,181.56
             1749.58,187.33 1750.70,193.91 1750.70,201.29
             1750.70,205.03 1750.29,207.55 1749.49,208.85
             1748.70,210.15 1747.17,210.79 1744.91,210.79
             1744.91,210.79 1681.41,210.79 1681.41,210.79 Z
           M 1681.41,210.79M 1637.71,110.40
           C 1637.71,110.40 1637.71,259.00 1637.71,259.00
             1637.71,259.00 1613.00,259.00 1613.00,259.00
             1613.00,259.00 1613.00,110.40 1613.00,110.40
             1613.00,110.40 1637.71,110.40 1637.71,110.40 Z
           M 1637.71,110.40M 1588.30,156.40
           C 1588.30,156.40 1588.30,259.00 1588.30,259.00
             1588.30,259.00 1573.20,259.00 1573.20,259.00
             1569.93,259.00 1567.87,257.50 1566.99,254.50
             1566.99,254.50 1565.30,246.29 1565.30,246.29
             1561.09,250.57 1556.45,254.03 1551.39,256.67
             1546.33,259.29 1540.37,260.60 1533.49,260.60
             1527.89,260.60 1522.94,259.65 1518.64,257.75
             1514.34,255.85 1510.73,253.17 1507.80,249.71
             1504.87,246.24 1502.66,242.12 1501.16,237.35
             1499.66,232.59 1498.91,227.34 1498.91,221.60
             1498.91,221.60 1498.91,156.40 1498.91,156.40
             1498.91,156.40 1523.59,156.40 1523.59,156.40
             1523.59,156.40 1523.59,221.60 1523.59,221.60
             1523.59,227.87 1525.04,232.72 1527.95,236.15
             1530.85,239.58 1535.20,241.29 1540.99,241.29
             1545.27,241.29 1549.27,240.35 1552.99,238.46
             1556.72,236.56 1560.26,233.94 1563.59,230.60
             1563.59,230.60 1563.59,156.40 1563.59,156.40
             1563.59,156.40 1588.30,156.40 1588.30,156.40 Z
           M 1588.30,156.40M 1450.80,182.60
           C 1448.00,179.20 1444.94,176.80 1441.64,175.40
             1438.34,173.99 1434.79,173.29 1430.99,173.29
             1427.27,173.29 1423.91,173.99 1420.91,175.40
             1417.91,176.80 1415.33,178.92 1413.20,181.75
             1411.06,184.58 1409.42,188.19 1408.28,192.56
             1407.16,196.93 1406.59,202.07 1406.59,208.00
             1406.59,214.00 1407.07,219.08 1408.03,223.25
             1409.00,227.42 1410.39,230.82 1412.20,233.46
             1414.00,236.08 1416.20,237.98 1418.80,239.15
             1421.40,240.31 1424.29,240.90 1427.49,240.90
             1432.63,240.90 1437.00,239.83 1440.59,237.71
             1444.19,235.57 1447.59,232.54 1450.80,228.60
             1450.80,228.60 1450.80,182.60 1450.80,182.60 Z
           M 1475.49,110.40
           C 1475.49,110.40 1475.49,259.00 1475.49,259.00
             1475.49,259.00 1460.41,259.00 1460.41,259.00
             1457.13,259.00 1455.06,257.50 1454.20,254.50
             1454.20,254.50 1452.09,244.60 1452.09,244.60
             1447.97,249.34 1443.22,253.18 1437.84,256.10
             1432.48,259.03 1426.23,260.50 1419.09,260.50
             1413.50,260.50 1408.37,259.33 1403.70,257.00
             1399.03,254.67 1395.01,251.29 1391.64,246.85
             1388.27,242.43 1385.68,236.95 1383.84,230.42
             1382.01,223.88 1381.09,216.41 1381.09,208.00
             1381.09,200.41 1382.13,193.34 1384.20,186.81
             1386.27,180.27 1389.23,174.60 1393.09,169.81
             1396.97,165.01 1401.60,161.26 1406.99,158.56
             1412.39,155.85 1418.46,154.50 1425.20,154.50
             1430.93,154.50 1435.83,155.41 1439.89,157.21
             1443.95,159.00 1447.59,161.43 1450.80,164.50
             1450.80,164.50 1450.80,110.40 1450.80,110.40
             1450.80,110.40 1475.49,110.40 1475.49,110.40 Z
           M 1475.49,110.40M 1345.69,195.90
           C 1345.69,192.70 1345.24,189.69 1344.34,186.85
             1343.45,184.02 1342.10,181.54 1340.29,179.42
             1338.50,177.28 1336.22,175.59 1333.44,174.35
             1330.68,173.12 1327.46,172.50 1323.79,172.50
             1316.67,172.50 1311.05,174.54 1306.94,178.60
             1302.84,182.68 1300.23,188.44 1299.11,195.90
             1299.11,195.90 1345.69,195.90 1345.69,195.90 Z
           M 1298.61,210.79
           C 1298.99,216.07 1299.93,220.63 1301.40,224.46
             1302.87,228.29 1304.80,231.46 1307.19,233.96
             1309.59,236.46 1312.44,238.33 1315.73,239.56
             1319.03,240.79 1322.69,241.40 1326.69,241.40
             1330.69,241.40 1334.14,240.93 1337.04,240.00
             1339.95,239.07 1342.48,238.04 1344.65,236.92
             1346.82,235.78 1348.71,234.74 1350.34,233.81
             1351.97,232.87 1353.57,232.40 1355.11,232.40
             1357.16,232.40 1358.69,233.17 1359.69,234.71
             1359.69,234.71 1366.79,243.71 1366.79,243.71
             1364.06,246.91 1360.99,249.58 1357.59,251.75
             1354.20,253.92 1350.65,255.66 1346.94,256.96
             1343.24,258.25 1339.48,259.16 1335.65,259.69
             1331.82,260.23 1328.10,260.50 1324.50,260.50
             1317.36,260.50 1310.72,259.32 1304.59,256.96
             1298.46,254.58 1293.13,251.08 1288.59,246.46
             1284.06,241.82 1280.49,236.08 1277.90,229.25
             1275.30,222.42 1274.00,214.50 1274.00,205.50
             1274.00,198.50 1275.13,191.92 1277.40,185.75
             1279.66,179.58 1282.91,174.22 1287.15,169.65
             1291.38,165.08 1296.55,161.46 1302.65,158.79
             1308.74,156.13 1315.63,154.79 1323.29,154.79
             1329.76,154.79 1335.73,155.83 1341.19,157.90
             1346.66,159.97 1351.36,162.99 1355.29,166.96
             1359.22,170.92 1362.31,175.79 1364.54,181.56
             1366.78,187.33 1367.90,193.91 1367.90,201.29
             1367.90,205.03 1367.49,207.55 1366.69,208.85
             1365.90,210.15 1364.37,210.79 1362.11,210.79
             1362.11,210.79 1298.61,210.79 1298.61,210.79 Z
           M 1298.61,210.79M 1191.50,167.40
           C 1195.50,163.66 1199.89,160.63 1204.68,158.29
             1209.48,155.96 1215.13,154.79 1221.60,154.79
             1227.19,154.79 1232.16,155.74 1236.50,157.65
             1240.83,159.55 1244.44,162.22 1247.35,165.65
             1250.25,169.08 1252.45,173.18 1253.95,177.96
             1255.45,182.72 1256.20,187.97 1256.20,193.71
             1256.20,193.71 1256.20,259.00 1256.20,259.00
             1256.20,259.00 1231.50,259.00 1231.50,259.00
             1231.50,259.00 1231.50,193.71 1231.50,193.71
             1231.50,187.43 1230.06,182.58 1227.18,179.15
             1224.32,175.72 1219.96,174.00 1214.10,174.00
             1209.83,174.00 1205.83,174.97 1202.10,176.90
             1198.36,178.83 1194.83,181.46 1191.50,184.79
             1191.50,184.79 1191.50,259.00 1191.50,259.00
             1191.50,259.00 1166.81,259.00 1166.81,259.00
             1166.81,259.00 1166.81,110.40 1166.81,110.40
             1166.81,110.40 1191.50,110.40 1191.50,110.40
             1191.50,110.40 1191.50,167.40 1191.50,167.40 Z
           M 1191.50,167.40M 1143.91,178.10
           C 1143.17,179.04 1142.45,179.77 1141.74,180.31
             1141.04,180.84 1140.03,181.10 1138.70,181.10
             1137.43,181.10 1136.20,180.72 1134.99,179.96
             1133.79,179.18 1132.37,178.31 1130.70,177.35
             1129.03,176.39 1127.04,175.52 1124.74,174.75
             1122.45,173.99 1119.60,173.60 1116.20,173.60
             1111.87,173.60 1108.06,174.39 1104.80,175.96
             1101.54,177.52 1098.82,179.77 1096.66,182.71
             1094.49,185.64 1092.87,189.19 1091.80,193.35
             1090.73,197.52 1090.20,202.24 1090.20,207.50
             1090.20,212.97 1090.78,217.84 1091.95,222.10
             1093.12,226.37 1094.79,229.95 1096.99,232.85
             1099.20,235.76 1101.87,237.96 1104.99,239.46
             1108.13,240.96 1111.66,241.71 1115.60,241.71
             1119.52,241.71 1122.70,241.22 1125.14,240.25
             1127.58,239.28 1129.64,238.21 1131.30,237.04
             1132.97,235.88 1134.41,234.81 1135.64,233.85
             1136.87,232.89 1138.26,232.40 1139.80,232.40
             1141.80,232.40 1143.30,233.17 1144.30,234.71
             1144.30,234.71 1151.41,243.71 1151.41,243.71
             1148.67,246.91 1145.70,249.58 1142.49,251.75
             1139.29,253.92 1135.98,255.66 1132.55,256.96
             1129.12,258.25 1125.58,259.16 1121.95,259.69
             1118.31,260.23 1114.69,260.50 1111.10,260.50
             1104.76,260.50 1098.79,259.32 1093.20,256.96
             1087.60,254.58 1082.70,251.14 1078.49,246.60
             1074.29,242.06 1070.98,236.52 1068.55,229.96
             1066.12,223.39 1064.91,215.91 1064.91,207.50
             1064.91,199.97 1065.99,192.99 1068.16,186.56
             1070.32,180.12 1073.50,174.55 1077.70,169.85
             1081.89,165.15 1087.08,161.46 1093.28,158.79
             1099.49,156.13 1106.63,154.79 1114.70,154.79
             1122.37,154.79 1129.08,156.03 1134.85,158.50
             1140.61,160.97 1145.79,164.51 1150.41,169.10
             1150.41,169.10 1143.91,178.10 1143.91,178.10 Z
           M 1143.91,178.10M 1041.60,140.71
           C 1040.80,142.10 1039.94,143.11 1039.04,143.75
             1038.15,144.39 1037.04,144.71 1035.71,144.71
             1034.30,144.71 1032.78,144.20 1031.15,143.17
             1029.52,142.13 1027.57,140.97 1025.29,139.71
             1023.03,138.43 1020.37,137.28 1017.33,136.25
             1014.30,135.22 1010.73,134.71 1006.60,134.71
             1002.86,134.71 999.59,135.16 996.79,136.06
             994.00,136.95 991.65,138.20 989.75,139.81
             987.84,141.41 986.43,143.33 985.50,145.56
             984.57,147.79 984.10,150.23 984.10,152.90
             984.10,156.30 985.05,159.14 986.94,161.40
             988.84,163.66 991.36,165.60 994.50,167.21
             997.63,168.81 1001.21,170.24 1005.21,171.50
             1009.21,172.77 1013.30,174.12 1017.50,175.56
             1021.69,176.99 1025.79,178.66 1029.79,180.56
             1033.79,182.45 1037.36,184.85 1040.50,187.75
             1043.63,190.66 1046.15,194.21 1048.04,198.42
             1049.94,202.61 1050.90,207.71 1050.90,213.71
             1050.90,220.24 1049.78,226.35 1047.54,232.06
             1045.32,237.76 1042.05,242.72 1037.75,246.96
             1033.44,251.18 1028.19,254.52 1022.00,256.96
             1015.80,259.39 1008.71,260.60 1000.71,260.60
             996.09,260.60 991.55,260.15 987.08,259.25
             982.62,258.35 978.34,257.06 974.25,255.40
             970.15,253.73 966.30,251.73 962.69,249.40
             959.09,247.06 955.90,244.47 953.10,241.60
             953.10,241.60 961.00,228.71 961.00,228.71
             961.67,227.77 962.53,226.98 963.60,226.35
             964.67,225.72 965.80,225.40 967.00,225.40
             968.67,225.40 970.46,226.08 972.40,227.46
             974.32,228.82 976.62,230.33 979.29,232.00
             981.96,233.67 985.07,235.19 988.65,236.56
             992.21,237.93 996.50,238.60 1001.50,238.60
             1009.17,238.60 1015.09,236.79 1019.29,233.17
             1023.50,229.53 1025.60,224.31 1025.60,217.50
             1025.60,213.70 1024.65,210.60 1022.75,208.21
             1020.84,205.81 1018.32,203.79 1015.19,202.17
             1012.06,200.53 1008.50,199.14 1004.50,198.00
             1000.50,196.86 996.43,195.63 992.29,194.29
             988.17,192.96 984.10,191.36 980.10,189.50
             976.10,187.64 972.53,185.21 969.40,182.21
             966.27,179.21 963.75,175.46 961.85,170.96
             959.95,166.46 959.00,160.91 959.00,154.29
             959.00,149.03 960.05,143.90 962.15,138.90
             964.24,133.90 967.29,129.47 971.29,125.60
             975.29,121.73 980.22,118.63 986.08,116.29
             991.96,113.96 998.69,112.79 1006.29,112.79
             1014.83,112.79 1022.70,114.13 1029.90,116.79
             1037.10,119.46 1043.23,123.20 1048.29,128.00
             1048.29,128.00 1041.60,140.71 1041.60,140.71 Z
           M 1041.60,140.71M 886.89,156.40
           C 886.89,156.40 886.89,259.00 886.89,259.00
             886.89,259.00 862.10,259.00 862.10,259.00
             862.10,259.00 862.10,156.40 862.10,156.40
             862.10,156.40 886.89,156.40 886.89,156.40 Z
           M 890.31,126.50
           C 890.31,128.64 889.87,130.64 889.00,132.50
             888.13,134.36 886.98,135.99 885.54,137.40
             884.10,138.80 882.42,139.92 880.50,140.75
             878.56,141.58 876.50,142.00 874.31,142.00
             872.17,142.00 870.15,141.58 868.25,140.75
             866.34,139.92 864.69,138.80 863.29,137.40
             861.90,135.99 860.79,134.36 859.95,132.50
             859.12,130.64 858.70,128.64 858.70,126.50
             858.70,124.31 859.12,122.24 859.95,120.31
             860.79,118.37 861.90,116.70 863.29,115.31
             864.69,113.91 866.34,112.79 868.25,111.96
             870.15,111.13 872.17,110.71 874.31,110.71
             876.50,110.71 878.56,111.13 880.50,111.96
             882.42,112.79 884.10,113.91 885.54,115.31
             886.98,116.70 888.13,118.37 889.00,120.31
             889.87,122.24 890.31,124.31 890.31,126.50 Z
           M 890.31,126.50M 836.61,110.40
           C 836.61,110.40 836.61,259.00 836.61,259.00
             836.61,259.00 811.90,259.00 811.90,259.00
             811.90,259.00 811.90,110.40 811.90,110.40
             811.90,110.40 836.61,110.40 836.61,110.40 Z
           M 836.61,110.40M 764.30,215.21
           C 757.17,215.54 751.17,216.16 746.30,217.06
             741.43,217.95 737.53,219.10 734.59,220.50
             731.65,221.91 729.56,223.54 728.30,225.42
             727.03,227.28 726.40,229.31 726.40,231.50
             726.40,235.83 727.68,238.94 730.25,240.81
             732.82,242.68 736.17,243.60 740.30,243.60
             745.36,243.60 749.74,242.69 753.44,240.85
             757.15,239.02 760.76,236.24 764.30,232.50
             764.30,232.50 764.30,215.21 764.30,215.21 Z
           M 707.69,170.71
           C 719.49,159.91 733.70,154.50 750.30,154.50
             756.30,154.50 761.66,155.49 766.40,157.46
             771.13,159.42 775.13,162.15 778.40,165.65
             781.66,169.15 784.14,173.33 785.84,178.21
             787.55,183.07 788.40,188.41 788.40,194.21
             788.40,194.21 788.40,259.00 788.40,259.00
             788.40,259.00 777.19,259.00 777.19,259.00
             774.86,259.00 773.06,258.66 771.80,257.96
             770.53,257.25 769.53,255.83 768.80,253.71
             768.80,253.71 766.61,246.29 766.61,246.29
             763.99,248.63 761.45,250.68 758.98,252.46
             756.52,254.22 753.96,255.71 751.30,256.92
             748.63,258.11 745.77,259.02 742.73,259.65
             739.70,260.28 736.36,260.60 732.69,260.60
             728.36,260.60 724.36,260.02 720.69,258.85
             717.02,257.69 713.86,255.94 711.19,253.60
             708.52,251.27 706.45,248.38 704.98,244.92
             703.52,241.45 702.80,237.41 702.80,232.79
             702.80,230.20 703.22,227.62 704.09,225.06
             704.96,222.49 706.38,220.04 708.34,217.71
             710.31,215.38 712.86,213.18 715.98,211.10
             719.12,209.04 722.97,207.24 727.55,205.71
             732.11,204.17 737.43,202.92 743.50,201.96
             749.57,200.99 756.50,200.41 764.30,200.21
             764.30,200.21 764.30,194.21 764.30,194.21
             764.30,187.33 762.83,182.25 759.90,178.96
             756.97,175.66 752.73,174.00 747.19,174.00
             743.19,174.00 739.87,174.47 737.23,175.40
             734.61,176.33 732.30,177.38 730.30,178.54
             728.30,179.71 726.47,180.77 724.84,181.71
             723.21,182.64 721.40,183.10 719.40,183.10
             717.66,183.10 716.19,182.66 714.98,181.75
             713.79,180.85 712.83,179.80 712.11,178.60
             712.11,178.60 707.69,170.71 707.69,170.71 Z
           M 707.69,170.71M 622.00,167.40
           C 626.00,163.66 630.39,160.63 635.18,158.29
             639.99,155.96 645.63,154.79 652.10,154.79
             657.69,154.79 662.66,155.74 667.00,157.65
             671.33,159.55 674.94,162.22 677.85,165.65
             680.75,169.08 682.95,173.18 684.45,177.96
             685.95,182.72 686.70,187.97 686.70,193.71
             686.70,193.71 686.70,259.00 686.70,259.00
             686.70,259.00 662.00,259.00 662.00,259.00
             662.00,259.00 662.00,193.71 662.00,193.71
             662.00,187.43 660.56,182.58 657.68,179.15
             654.82,175.72 650.46,174.00 644.60,174.00
             640.33,174.00 636.33,174.97 632.60,176.90
             628.86,178.83 625.33,181.46 622.00,184.79
             622.00,184.79 622.00,259.00 622.00,259.00
             622.00,259.00 597.31,259.00 597.31,259.00
             597.31,259.00 597.31,110.40 597.31,110.40
             597.31,110.40 622.00,110.40 622.00,110.40
             622.00,110.40 622.00,167.40 622.00,167.40 Z
           M 622.00,167.40M 557.10,260.60
           C 548.16,260.60 541.31,258.09 536.55,253.06
             531.79,248.02 529.41,241.07 529.41,232.21
             529.41,232.21 529.41,174.90 529.41,174.90
             529.41,174.90 518.91,174.90 518.91,174.90
             517.57,174.90 516.43,174.47 515.49,173.60
             514.56,172.73 514.10,171.43 514.10,169.71
             514.10,169.71 514.10,159.90 514.10,159.90
             514.10,159.90 530.60,157.21 530.60,157.21
             530.60,157.21 535.80,129.21 535.80,129.21
             536.14,127.88 536.77,126.84 537.70,126.10
             538.63,125.37 539.83,125.00 541.30,125.00
             541.30,125.00 554.10,125.00 554.10,125.00
             554.10,125.00 554.10,157.29 554.10,157.29
             554.10,157.29 581.49,157.29 581.49,157.29
             581.49,157.29 581.49,174.90 581.49,174.90
             581.49,174.90 554.10,174.90 554.10,174.90
             554.10,174.90 554.10,230.50 554.10,230.50
             554.10,233.70 554.88,236.20 556.45,238.00
             558.02,239.81 560.17,240.71 562.91,240.71
             564.43,240.71 565.71,240.53 566.74,240.17
             567.78,239.79 568.68,239.41 569.45,239.00
             570.21,238.60 570.89,238.22 571.49,237.85
             572.10,237.48 572.71,237.29 573.30,237.29
             574.04,237.29 574.64,237.48 575.10,237.85
             575.56,238.22 576.06,238.77 576.60,239.50
             576.60,239.50 583.99,251.50 583.99,251.50
             580.39,254.50 576.26,256.77 571.60,258.31
             566.93,259.84 562.10,260.60 557.10,260.60 Z
           M 557.10,260.60M 494.10,140.71
           C 493.30,142.10 492.44,143.11 491.54,143.75
             490.65,144.39 489.54,144.71 488.21,144.71
             486.80,144.71 485.28,144.20 483.65,143.17
             482.02,142.13 480.07,140.97 477.79,139.71
             475.53,138.43 472.87,137.28 469.83,136.25
             466.80,135.22 463.23,134.71 459.10,134.71
             455.36,134.71 452.09,135.16 449.29,136.06
             446.50,136.95 444.15,138.20 442.25,139.81
             440.34,141.41 438.93,143.33 438.00,145.56
             437.07,147.79 436.60,150.23 436.60,152.90
             436.60,156.30 437.55,159.14 439.44,161.40
             441.34,163.66 443.86,165.60 447.00,167.21
             450.14,168.81 453.71,170.24 457.71,171.50
             461.71,172.77 465.80,174.12 470.00,175.56
             474.19,176.99 478.29,178.66 482.29,180.56
             486.29,182.45 489.86,184.85 493.00,187.75
             496.14,190.66 498.65,194.21 500.54,198.42
             502.44,202.61 503.40,207.71 503.40,213.71
             503.40,220.24 502.28,226.35 500.04,232.06
             497.82,237.76 494.55,242.72 490.25,246.96
             485.94,251.18 480.69,254.52 474.50,256.96
             468.30,259.39 461.21,260.60 453.21,260.60
             448.59,260.60 444.05,260.15 439.58,259.25
             435.12,258.35 430.84,257.06 426.75,255.40
             422.65,253.73 418.80,251.73 415.19,249.40
             411.59,247.06 408.40,244.47 405.60,241.60
             405.60,241.60 413.50,228.71 413.50,228.71
             414.17,227.77 415.03,226.98 416.10,226.35
             417.17,225.72 418.30,225.40 419.50,225.40
             421.17,225.40 422.96,226.08 424.90,227.46
             426.82,228.82 429.12,230.33 431.79,232.00
             434.46,233.67 437.57,235.19 441.15,236.56
             444.71,237.93 449.00,238.60 454.00,238.60
             461.67,238.60 467.59,236.79 471.79,233.17
             476.00,229.53 478.10,224.31 478.10,217.50
             478.10,213.70 477.15,210.60 475.25,208.21
             473.34,205.81 470.82,203.79 467.69,202.17
             464.56,200.53 461.00,199.14 457.00,198.00
             453.00,196.86 448.93,195.63 444.79,194.29
             440.67,192.96 436.60,191.36 432.60,189.50
             428.60,187.64 425.03,185.21 421.90,182.21
             418.77,179.21 416.26,175.46 414.35,170.96
             412.45,166.46 411.50,160.91 411.50,154.29
             411.50,149.03 412.55,143.90 414.65,138.90
             416.74,133.90 419.79,129.47 423.79,125.60
             427.79,121.73 432.72,118.63 438.58,116.29
             444.46,113.96 451.19,112.79 458.79,112.79
             467.33,112.79 475.20,114.13 482.40,116.79
             489.60,119.46 495.73,123.20 500.79,128.00
             500.79,128.00 494.10,140.71 494.10,140.71 Z
           M 494.10,140.71M 267.21,337.59
           C 267.21,337.59 267.21,267.15 267.21,267.15
             267.21,267.15 205.51,231.41 205.51,231.41
             205.51,231.41 205.51,301.85 205.51,301.85
             205.51,301.85 267.21,337.59 267.21,337.59 Z
           M 287.78,337.59
           C 287.78,337.59 349.49,301.85 349.49,301.85
             349.49,301.85 349.49,231.41 349.49,231.41
             349.49,231.41 287.78,267.15 287.78,267.15
             287.78,267.15 287.78,337.59 287.78,337.59 Z
           M 277.50,249.40
           C 277.50,249.40 338.43,214.18 338.43,214.18
             338.43,214.18 277.50,178.95 277.50,178.95
             277.50,178.95 216.56,214.18 216.56,214.18
             216.56,214.18 277.50,249.40 277.50,249.40 Z
           M 195.22,319.85
           C 191.96,317.97 189.44,315.48 187.64,312.40
             185.84,309.31 184.94,305.89 184.94,302.11
             184.94,302.11 184.94,220.35 184.94,220.35
             184.94,216.58 185.84,213.15 187.64,210.07
             189.44,206.98 191.96,204.49 195.22,202.61
             195.22,202.61 267.21,161.21 267.21,161.21
             270.47,159.33 273.90,158.39 277.50,158.39
             281.10,158.39 284.53,159.33 287.78,161.21
             287.78,161.21 359.78,202.61 359.78,202.61
             363.03,204.49 365.56,206.98 367.36,210.07
             369.16,213.15 370.06,216.58 370.06,220.35
             370.06,220.35 370.06,302.11 370.06,302.11
             370.06,305.89 369.16,309.31 367.36,312.40
             365.56,315.48 363.03,317.97 359.78,319.85
             359.78,319.85 287.78,361.25 287.78,361.25
             284.53,363.14 281.10,364.08 277.50,364.08
             273.90,364.08 270.47,363.14 267.21,361.25
             267.21,361.25 195.22,319.85 195.22,319.85 Z
           M 277.50,261.23 277.50,261.23 277.50,261.23 277.50,261.23
           M 277.50,261.23M 82.13,337.59
           C 82.13,337.59 82.13,267.15 82.13,267.15
             82.13,267.15 20.42,231.41 20.42,231.41
             20.42,231.41 20.42,301.85 20.42,301.85
             20.42,301.85 82.13,337.59 82.13,337.59 Z
           M 102.70,337.59
           C 102.70,337.59 164.41,301.85 164.41,301.85
             164.41,301.85 164.41,231.41 164.41,231.41
             164.41,231.41 102.70,267.15 102.70,267.15
             102.70,267.15 102.70,337.59 102.70,337.59 Z
           M 92.42,249.40
           C 92.42,249.40 153.35,214.18 153.35,214.18
             153.35,214.18 92.42,178.95 92.42,178.95
             92.42,178.95 31.48,214.18 31.48,214.18
             31.48,214.18 92.42,249.40 92.42,249.40 Z
           M 10.14,319.85
           C 6.88,317.97 4.35,315.48 2.55,312.40
             0.76,309.31 -0.15,305.89 -0.15,302.11
             -0.15,302.11 -0.15,220.35 -0.15,220.35
             -0.15,216.58 0.76,213.15 2.55,210.07
             4.35,206.98 6.88,204.49 10.14,202.61
             10.14,202.61 82.13,161.21 82.13,161.21
             85.39,159.33 88.82,158.39 92.42,158.39
             96.02,158.39 99.44,159.33 102.70,161.21
             102.70,161.21 174.69,202.61 174.69,202.61
             177.95,204.49 180.47,206.98 182.28,210.07
             184.08,213.15 184.97,216.58 184.97,220.35
             184.97,220.35 184.97,302.11 184.97,302.11
             184.97,305.89 184.08,309.31 182.28,312.40
             180.47,315.48 177.95,317.97 174.69,319.85
             174.69,319.85 102.70,361.25 102.70,361.25
             99.44,363.14 96.02,364.08 92.42,364.08
             88.82,364.08 85.39,363.14 82.13,361.25
             82.13,361.25 10.14,319.85 10.14,319.85 Z
           M 92.42,261.23 92.42,261.23 92.42,261.23 92.42,261.23
           M 92.42,261.23M 174.69,179.08
           C 174.69,179.08 174.69,108.64 174.69,108.64
             174.69,108.64 112.98,72.90 112.98,72.90
             112.98,72.90 112.98,143.34 112.98,143.34
             112.98,143.34 174.69,179.08 174.69,179.08 Z
           M 195.26,179.08
           C 195.26,179.08 256.97,143.34 256.97,143.34
             256.97,143.34 256.97,72.90 256.97,72.90
             256.97,72.90 195.26,108.64 195.26,108.64
             195.26,108.64 195.26,179.08 195.26,179.08 Z
           M 184.97,90.90
           C 184.97,90.90 245.91,55.67 245.91,55.67
             245.91,55.67 184.97,20.44 184.97,20.44
             184.97,20.44 124.04,55.67 124.04,55.67
             124.04,55.67 184.97,90.90 184.97,90.90 Z
           M 102.70,161.34
           C 99.44,159.46 96.92,156.97 95.11,153.89
             93.32,150.80 92.42,147.38 92.42,143.60
             92.42,143.60 92.42,61.84 92.42,61.84
             92.42,58.07 93.32,54.64 95.11,51.56
             96.92,48.47 99.44,45.98 102.70,44.10
             102.70,44.10 174.69,2.70 174.69,2.70
             177.95,0.82 181.38,-0.12 184.97,-0.12
             188.58,-0.12 192.01,0.82 195.26,2.70
             195.26,2.70 267.26,44.10 267.26,44.10
             270.51,45.98 273.04,48.47 274.84,51.56
             276.64,54.64 277.54,58.07 277.54,61.84
             277.54,61.84 277.54,143.60 277.54,143.60
             277.54,147.38 276.64,150.80 274.84,153.89
             273.04,156.97 270.51,159.46 267.26,161.34
             267.26,161.34 195.26,202.74 195.26,202.74
             192.01,204.63 188.58,205.57 184.97,205.57
             181.38,205.57 177.95,204.63 174.69,202.74
             174.69,202.74 102.70,161.34 102.70,161.34 Z
           M 184.97,102.72 184.97,102.72 184.97,102.72 184.97,102.72
           M 184.97,102.72" />
</svg>
